<?xml version="1.0" encoding="UTF-8"?>
<svg id="Layer_2" data-name="Layer 2" xmlns="http://www.w3.org/2000/svg" viewBox="0 0 1689.52 614.68">
  <defs>
    <style>
      .cls-1 {
        fill: #eb5e28;
        stroke-width: 0px;
      }
    </style>
  </defs>
  <g id="Layer_1-2" data-name="Layer 1">
    <g>
      <g>
        <circle class="cls-1" cx="1000.6" cy="355.49" r="45.98"/>
        <circle class="cls-1" cx="1295.38" cy="355.49" r="45.98"/>
      </g>
      <path class="cls-1" d="M0,463.34V0h75.36v463.34H0Z"/>
      <path class="cls-1" d="M137.01,309.52c0-96.53,62.9-163.17,153.2-163.17s150.71,61.65,150.71,157.56v23.04l-231.67.62c5.6,54.18,34.25,81.58,84.7,81.58,41.73,0,69.13-16.19,77.85-45.46h70.37c-13.08,67.26-69.13,107.74-149.47,107.74-91.55,0-155.69-66.64-155.69-161.92ZM211.11,279h154.45c0-42.35-29.27-70.37-74.73-70.37s-72.24,24.29-79.71,70.37Z"/>
      <path class="cls-1" d="M457.11,155.69h79.09l40.48,132.03c6.85,24.29,13.08,51.07,18.68,79.71,5.6-29.89,11.21-49.2,21.17-79.71l42.35-132.03h77.22l41.1,132.03c3.74,12.46,16.19,58.54,19.93,79.09,4.98-23.04,14.95-59.79,20.55-79.09l41.1-132.03h80.34l-106.49,307.65h-71l-42.35-133.27c-12.46-40.48-19.31-69.75-21.8-85.32-3.11,14.32-8.72,36.12-24.29,86.57l-42.35,132.03h-74.11l-99.64-307.65Z"/>
      <path class="cls-1" d="M1054.81,540.57c10.59,3.11,16.81,3.74,26.16,3.74,26.16,0,34.88-14.95,34.88-46.09V155.69h75.98v351.24c0,65.39-37.37,107.74-104,107.74-14.32,0-25.53-1.25-45.46-6.85l12.46-67.26Z"/>
      <path class="cls-1" d="M1539.43,146.35c84.07,0,141.37,46.71,149.47,120.82h-75.98c-8.72-34.88-34.25-52.94-70.37-52.94-48.58,0-80.96,36.74-80.96,94.66s29.89,94.04,78.47,94.04c37.99,0,64.77-18.68,72.86-52.31h76.6c-9.34,71.62-69.13,120.82-149.47,120.82-93.42,0-154.45-64.77-154.45-162.54s62.9-162.54,153.82-162.54Z"/>
    </g>
  </g>
</svg>